<svg viewBox="0 0 742 264" xmlns="http://www.w3.org/2000/svg" fill-rule="evenodd" clip-rule="evenodd" stroke-linejoin="round" stroke-miterlimit="1.414"><path d="M167.7 164.399l-.077-71.548-14.085 2.994-9.327 18.647c-1.801 3.552-3.883 8.186-3.883 8.186l-.196.041s-2.228-4.229-4.109-7.305l-8.504-14.039-13.499 2.87.078 71.547 13.107-2.786-.023-40.99c-.05-4.08-.259-8.431-.259-8.431l.196-.042s2.068 3.957 4.206 7.285l9.398 14.87.195-.04 9.825-19.673c1.857-3.769 3.862-8.284 3.862-8.284l.196-.042s-.224 4.24-.267 8.849l.059 40.677 13.107-2.786zm47.44-10.084l-16.314-68.096-14.476 3.077-16.16 74.999 13.791-2.932 2.115-11.695 15.846-3.368 2.287 10.76 12.912-2.745zm-17.699-20.263l-10.857 2.308 3.579-18.754c.866-4.58 1.54-10.551 1.563-11.885l.195-.042s1.106 7.126 2.063 11.626l3.457 16.747z" fill="#FFF" fill-rule="nonzero"/><path d="M256.712 145.478l-10.67-22.78c8.526-7.025 11.255-18.237 9.217-27.823-2.162-10.173-11.047-18.304-23.665-15.621l-17.215 3.659.077 71.547 12.912-2.744-.069-21.966 7.434-1.58 9.067 20.053 12.912-2.745zm-29.37-28.516l-.017-24.124 4.695-.998c5.967-1.268 9.496 1.867 10.598 7.05 1.705 8.022-2.072 15.265-10.484 17.053l-4.793 1.019zm72.311 19.389l-16.901-38.63 16.726-32.897-15.162 3.223-10.66 21.997a172.35 172.35 0 0 0-3.743 8.361l-.195.042s.273-4.966.245-8.947l-.025-18.397-13.108 2.786.078 71.548 13.107-2.786-.075-22.476c3.013-5.547 3.96-8.305 3.96-8.305l.196-.041 11.471 27.516 14.086-2.994zm10.949-15.822c3.368 7.667 13.028 11.748 23.592 9.503 12.813-2.724 22.28-13.017 19.14-27.787-3.388-15.944-26.16-14.375-28.135-23.668-.894-4.206 1.612-7.806 5.525-8.637 5.184-1.102 9.238 1.614 10.835 7.205l10.54-9.09c-3.297-8.296-11.65-12.962-22.8-10.592-12.423 2.64-19.432 13.434-17 24.878 3.452 16.238 26.348 15.256 28.261 24.255 1.31 6.162-2.607 9.857-7.596 10.918-4.89 1.04-10.39-1.268-12.702-5.888l-9.66 8.903zm81.29-3.784l-.056-12.767-23.377 4.969-.004-14.926 19.661-4.179.042-12.788-19.66 4.179-.005-18.299 23.377-4.969-.055-12.767-36.387 7.734.077 71.547 36.387-7.734z" fill="#FFF" fill-rule="nonzero"/><path d="M420.982 91.035l16.61-55.568-14.77 3.14-5.54 22.033c-1.42 5.823-2.914 13.705-2.914 13.705l-.196.042s-1.663-7.825-3.198-13.122l-5.465-18.978-13.89 2.952 16.523 47.912.085 20.122 12.814-2.724-.059-19.514zm70.485 4.545l-.077-71.548-14.085 2.994-9.327 18.647c-1.8 3.552-3.883 8.186-3.883 8.186l-.196.041s-2.228-4.229-4.108-7.305l-8.505-14.038-13.498 2.869.077 71.547 13.107-2.786-.023-40.99c-.049-4.08-.258-8.431-.258-8.431l.195-.042s2.068 3.957 4.207 7.285l9.397 14.87.196-.04 9.824-19.673c1.857-3.769 3.862-8.284 3.862-8.284l.196-.042s-.224 4.24-.266 8.849l.058 40.677 13.107-2.786z" fill="#FFF" fill-rule="nonzero"/><path d="M518.574 90.84c22.107-4.699 23.087-35.68 19.116-54.362-2.6-12.227-10.414-21.096-23.717-18.268-22.204 4.72-23.045 35.875-19.094 54.46 2.599 12.227 10.393 20.998 23.695 18.17zm-1.522-12.455c-5.282 1.122-8.195-2.961-9.588-9.515-2.474-11.64-2.238-36.022 8.032-38.205 5.282-1.123 8.195 2.961 9.588 9.515 2.495 11.737 2.238 36.022-8.032 38.205z" fill="#FFF" fill-rule="nonzero"/><path d="M569.478 55.688c-.053 6.964-.878 11.74-7.04 13.05-4.696.997-7.507-1.165-8.463-5.665-.25-1.174-.324-2.487-.322-3.919L553.6 10.81l-13.107 2.786.005 47.64a25.55 25.55 0 0 0 .542 5.917c2.516 11.835 12.846 16.183 23.214 13.979 11.836-2.516 18.33-10.44 18.359-27.62l-.06-48.856-13.107 2.786.032 48.247zm57.659 11.054l-10.67-22.78c8.526-7.025 11.254-18.238 9.217-27.824C623.52 5.966 614.637-2.165 602.019.518l-17.216 3.659.078 71.547 12.911-2.744-.068-21.966 7.434-1.58 9.067 20.053 12.912-2.745zm-29.371-28.516l-.016-24.124 4.695-.998c5.967-1.269 9.496 1.866 10.597 7.05 1.705 8.021-2.071 15.265-10.483 17.053l-4.793 1.019z" fill="#FFF" fill-rule="nonzero"/><g fill="#FFF" fill-rule="nonzero"><path d="M8.345 263.181l-.038-22.319 4.992-1.06.01-3.213L.01 239.416 0 242.628l4.991-1.06.003 22.325 3.351-.712zm23.665-5.031l-.027-25.53-3.281.697.027 12.143-8.063 1.713.008-12.15-3.316.705.028 25.532 3.316-.705-.046-10.169 8.063-1.714.01 10.176 3.282-.697zm18.64-3.961l-.025-3.205-9.424 2.003.01-7.335 8.063-1.714.01-3.212-8.063 1.714-.026-8.532 9.46-2.01-.033-3.24-12.705 2.7.027 25.532 12.706-2.701zm38.697-28.601c.426-1.445-1.4-2.073-1.778-1.992-1.746 4.265-4.417 10.025-8.141 14.542-2.925 3.5-6.796 5.734-10.131 5.71-.228-4.524 1.934-12.942 6.976-16.835-.932 1.722-1.827 3.887-1.533 5.8.271 1.805 1.283 3.114 2.795 2.793.855-1.819 4.42-7.882 4.145-9.178-.184-.864-1.331-1.75-2.623-1.983-.61-1.28-2.009-2.282-4.655-1.72-5.616 1.194-11.46 11.41-9.83 19.079.357 1.674 1.411 2.917 2.748 3.367 1.348 3.156 4.326 4.95 7.62 4.25 6.696-1.423 12.315-17.744 14.407-23.833z"/><path d="M96.54 244.83c4.537-.964 10.339-16.421 12.463-23.42.48-1.457-1.55-1.984-1.67-2.015-2.16 4.974-6.422 15.193-12.644 19.112 1.243-5.57 3.747-13.44 4.638-15.887-.141-.93-1.716-2.231-2.318-1.877-2.203.524-3.707.618-5.854.34.376-1.152.938-3.02.996-3.541-.183-.864-1.928-1.904-3.602-1.549-1.836.39-3.371 5.12-3.015 6.793.149.703.742 1.367 1.647 1.908-.945 2.459-2.192 5.884-3.728 8.75-.837 2.436 1.436 4.098 1.306 3.223 1.833-3.325 3.901-8.732 4.653-11.036.902.26 1.835.4 2.853.41-2.556 6.3-3.72 10.385-3.249 12.6.425 1.997 1.77 3.01 3.138 3.34.864 1.678 2.335 3.285 4.387 2.849z"/><path d="M129.848 216.98c.373-1.434-1.346-2.085-1.724-2.005-3.989 10.443-9.348 19.484-16.912 20.81-.486.103-1.049.11-1.623.063-.325-1.794-.306-3.83.048-5.88.639.88 2.122 1.75 3.472 1.463 3.888-.827 8.886-8.38 7.876-13.132-.23-1.08-1.192-1.891-2.225-2.236-.545-1.239-1.72-2.513-4.905-1.836-5.779 1.228-11.464 11.919-10.041 18.615.436 2.052 1.61 3.327 3.024 3.873 1.417 3.48 4.608 4.947 8.064 4.212 5.778-1.228 13.095-16.725 14.946-23.948zm-20.028 11.99c1.022-5.016 3.81-9.954 7.427-11.795-.709 4.101-4.305 10.284-7.427 11.794z"/><path d="M142.55 235.05c4.536-.964 10.662-16.49 12.84-23.5.427-1.445-1.723-2.004-1.723-2.004-2.106 4.963-6.43 15.42-12.553 19.544.993-5.686 3.645-14.716 5.228-18.156-.313-1.74-4.93-3.016-5.953-.654l-.84 2.154c-.56-1.574-2.386-2.992-5.41-2.35-4.806 1.022-11.115 11.168-9.463 18.944.356 1.674 1.13 2.921 2.262 3.47.579 2.192 2.49 5.341 5.244 4.756 1.62-.344 3.363-3.03 4.935-6.524.196.128.381.201.566.275.63 1.898 2.6 4.527 4.867 4.045zm-13.613-3.767c-.08-4.893 2.806-15.214 9.226-17.934-.476 3.601-3.239 14.235-9.226 17.934z"/><path d="M158.157 231.733c4.46-1.061 13.045-16.432 14.241-24.08.211-1.4-1.604-1.973-1.724-2.004-2.202 5.04-7.569 16.17-14.157 20.224.767-4.622 2.188-10.681 3.484-15.472 1.663-.41 3.163-.785 4.1-1.154 1.52-.549 2.302-4.045 1.42-4.478-.317-.159-1.96.078-4.077.471.415-1.499.748-2.586.853-2.89.441-1.11-1.973-2.91-4.565-2.36-.759 1.742-1.576 4.004-2.336 6.536-2.58.605-4.707 1.226-4.996 1.457-1.104.912.75 3.791 2.176 3.601.444-.038.941-.087 1.373-.179-1.614 6.213-2.816 12.508-2.322 14.83.298 1.404.883 2.296 2.228 2.518.865 1.678 2.478 3.424 4.302 2.98z"/><path d="M175.208 200.96c2.862-.608 4.671-3.25 4.442-4.33-.287-1.35-.988-1.992-1.608-2.255a7.237 7.237 0 0 1 2.615-.443c.027-.401-1.09-3.268-4.978-2.441-3.186.677-4.946 3.816-4.521 5.815a2.8 2.8 0 0 0 .357.883c.053.78.885 3.368 3.693 2.77zm-1.583-2.937c.572-1.025 1.823-2.307 3.437-3.214-.242 1.519-1.624 2.716-3.437 3.214zm.894 30.232c4.46-1.06 10.605-16.76 12.783-23.77.427-1.445-1.67-2.016-1.724-2.004-2.19 5.094-6.724 16.16-13.197 19.963 1.659-9.722 5.055-16.313 4.814-17.448-.195-.918-3.235-2.473-4.963-2.105-2.538 5.054-5.9 17.114-5.057 19.757.495 1.531 1.674 2.297 2.954 2.476.876 1.733 2.566 3.575 4.39 3.13z"/><path d="M200.853 218.311c5.94-1.262 10.45-16.952 11.16-19.191.48-1.457-1.13-2.13-1.725-2.004-1.95 4.365-6.09 14.897-11.877 17.143.306-.686 5.002-9.925 3.82-15.487-.425-1.998-2.502-2.742-4.122-2.398-1.404.299-3.201 4.857-3.668 7.44-.354 2.051-.139 4.658.486 7.065-2.108 3.891-4.566 7.461-7.287 9 1.133-6.62 2.778-12.952 4.774-18.964-.26-.96-3.63-1.938-5.4-1.505-.918.195-5.628 15.476-4.836 19.202.402 1.89 2.263 2.68 3.92 2.78.607 1.79 2.084 3.959 4.136 3.523 1.782-.38 4.63-3.976 7.109-8.51 1.023 1.363 2.214 2.182 3.51 1.906z"/><path d="M226.962 205.989c-.218-1.026-.95-1.548-1.894-1.742l-.216.046c-2.003 5.448-7.142 9.42-11.084 10.257-.432.092-.875.13-1.265.156-.478-1.986-.517-4.292-.1-6.582.638.88 2.121 1.75 3.471 1.463 3.888-.826 8.886-8.38 7.876-13.132-.23-1.08-1.192-1.89-2.225-2.236-.545-1.238-1.72-2.513-4.905-1.836-5.778 1.229-11.464 11.92-10.041 18.616.379 1.782 1.302 2.94 2.458 3.597 1.208 4.09 5.228 5.21 7.82 4.66 6.156-1.309 10.576-11.053 10.105-13.267zm-14.377 1.137c1.023-5.015 3.81-9.954 7.427-11.795-.709 4.102-4.305 10.284-7.427 11.795zm44.659-8.658l.013-4.126-10.177 2.163-.027-12.693 11.97-2.544-.04-4.162-16.14 3.431.035 32.793 4.215-.896-.026-11.803 10.177-2.163zm21.255-3.393c.002 4.638-1.126 7.268-4.444 7.973-2.69.572-4.717-.59-5.346-3.55-.143-.672-.206-1.408-.198-2.253l-.024-22.159-4.26.906.003 21.835a12.957 12.957 0 0 0 .287 2.89c1.124 5.29 5.49 7.315 10.153 6.324 5.2-1.106 8.123-4.773 8.1-12.593l-.027-22.392-4.259.905.015 22.114zm25.172 5.333l-.032-4.117-10.042 2.134-.004-28.675-4.259.905.036 32.792 14.301-3.04zm17.932-3.812l-.031-4.117-10.042 2.135-.004-28.676-4.26.905.036 32.793 14.301-3.04zm12.067-16.2l-.02-3.838-10.58 2.249-.026 3.847 10.625-2.258zm21.201-17.533c-1.659-3.396-5.379-5.464-10.13-4.454-5.29 1.125-8.41 5.63-7.343 10.651 1.716 8.07 12.913 6.3 14.142 12.082.706 3.318-1.405 5.735-4.409 6.373-2.78.59-5.68-.714-7.092-2.944l-3.138 2.87c1.883 3.348 6.138 5.067 10.71 4.095 5.425-1.153 9.363-5.55 8.048-11.738-1.753-8.249-12.893-6.209-14.104-11.902-.59-2.78 1.244-4.95 3.71-5.475 2.78-.59 5.152.873 6.189 3.324l3.417-2.882zm13.806 23.727l-.05-28.666 6.412-1.363.013-4.126-17.08 3.63-.014 4.127 6.41-1.363.005 28.676 4.304-.915zm28.693-6.099l-8.375-31.02-4.438.944-8.304 34.565 4.484-.953c.583-2.326 1.112-4.688 1.685-7.06l9.012-1.914a334.479 334.479 0 0 1 1.721 6.334l4.214-.896zm-6.83-9.419l-7.262 1.544 2.618-11.053c.496-2.073.81-4.342.898-5.251l.09-.02c.162.763.664 2.905 1.287 5.397l2.37 9.383zm24.492-3.378c-.822 3.407-2.446 5.908-5.136 6.48-3.317.705-5.163-1.808-5.983-5.663-1.286-6.053-1.083-18.325 5.238-19.669 3.004-.638 4.79 1.372 5.719 4.641l3.564-2.631c-1.58-4.35-4.742-7.099-9.808-6.022-10.177 2.163-10.495 16.757-8.761 24.916 1.21 5.694 4.549 9.717 10.511 8.45 4.573-.973 7.184-4.34 8.488-8.787l-3.832-1.715zm26.451 3.421l-8.708-16.94 8.404-15.796-5.021 1.068-6.43 12.518c-.992 1.945-1.818 3.573-2.495 4.795l-.09.019c.045-.01.088-2.455.09-4.424l.003-11.012-4.259.905.035 32.793 4.26-.905-.006-10.167c1.926-3.502 2.758-5.32 2.758-5.32l.09-.018 6.841 13.446 4.528-.962zm38.6-8.205l7.093-34.308-4.483.953-3.959 20.615c-.558 2.884-1.05 6.08-1.05 6.08l-.09.02s-.284-2.001-1.146-5.614l-4.514-18.814-3.677.782-4.362 20.7c-.603 2.893-1.14 6.1-1.14 6.1l-.09.02s-.516-3.312-1.021-5.688l-4.146-18.845-4.214.895 7.163 31.278 4.483-.953 4.642-21.37c.374-1.766.588-3.405.588-3.405l.09-.019s.008.701.67 3.372l4.68 19.154 4.483-.953zm27.08-5.756l-.032-4.117-12.105 2.573.013-9.42 10.356-2.202.013-4.126-10.356 2.201-.033-10.957 12.15-2.583-.042-4.161-16.319 3.468.036 32.793 16.319-3.469zm14.704-3.125c7.173-1.525 10.888-6.532 9.621-12.495-.667-3.138-3.052-4.88-5.798-5.233l-.02-.09c3.279-1.775 5.295-5.296 4.427-9.375-.905-4.26-4.23-6.458-9.7-5.295l-7.576 1.61.035 32.793 9.011-1.915zm-4.873-3.088l.002-11.012 4.528-.962c3.318-.706 5.223.764 5.795 3.454.829 3.9-1.18 6.576-5.752 7.548l-4.573.972zm-.017-14.85l.045-9.71 3.272-.695c3.363-.714 5.19.163 5.713 2.628.743 3.497-1.185 6.11-5.847 7.1l-3.183.677zm38.603 10.772c7.936-1.687 11.277-8.676 11.364-17.082.02-2.113-.16-4.277-.569-6.205-1.267-5.963-5.136-10.716-11.95-9.268l-6.725 1.43.035 32.792 7.846-1.667zm-3.752-3.326l-.007-24.505 3.272-.696c3.766-.8 6.246 2.047 7.17 6.395 1.934 9.101-1.379 16.88-7.028 18.082l-3.407.724zm36.301-3.593l-.032-4.116-12.104 2.572.012-9.42 10.356-2.202.013-4.126-10.356 2.201-.033-10.957 12.15-2.583-.042-4.161-16.318 3.468.035 32.793 16.319-3.469zm15.198-3.23l8.168-34.537-4.483.953-4.47 19.974c-.648 2.903-1.091 5.668-1.479 7.812l-.09.02c-.202-1.176-1.045-4.699-1.782-7.728l-4.373-17.486-4.17.887 8.24 31.048 4.439-.943zm28.153-5.984l-.031-4.117-12.105 2.573.012-9.421 10.357-2.201.013-4.127-10.356 2.202-.033-10.958 12.149-2.582-.041-4.162-16.319 3.469.036 32.792 16.318-3.468zm19.996-4.25l-.032-4.117-10.042 2.134-.004-28.676-4.259.906.036 32.792 14.301-3.04zm13.007-2.297c9.37-1.991 10.895-14.873 8.77-24.87-1.21-5.695-4.558-9.762-10.52-8.495-9.37 1.992-10.922 14.973-8.807 24.926 1.22 5.738 4.55 9.716 10.557 8.44zm-.48-4.021c-3.452.734-5.183-1.897-6.022-5.843-1.686-7.935-.184-18.282 5.24-19.435 3.453-.733 5.183 1.898 6.022 5.843 1.706 8.025.14 18.291-5.24 19.435zm19.304-.448l-.02-9.133 3.676-.782c8.697-1.848 11.226-9.79 9.787-16.56-1.048-4.93-4.692-8.186-10.34-6.985l-7.308 1.553-.01 32.802 4.215-.895zm-.017-13.304l.013-15.372 3.228-.686c3.452-.734 5.485.895 6.152 4.034 1.096 5.155-1.323 10.308-6.12 11.328l-3.273.696zm34.402 5.995l-.031-4.117-12.105 2.573.012-9.421 10.357-2.201.013-4.127-10.356 2.202-.033-10.958 12.149-2.582-.041-4.162-16.319 3.469.036 32.792 16.318-3.468zm24.03-5.108l-5.284-10.31c4.34-3.172 5.575-8.823 4.574-13.53-1-4.707-4.795-7.79-10.399-6.599l-7.307 1.553.035 32.793 4.214-.896-.025-10.256 2.825-.6a21.25 21.25 0 0 0 2.392-.65l4.716 9.4 4.259-.905zm-14.188-11.416l-.028-14.24 3.228-.685c3.497-.743 5.53.886 6.16 3.845 1.162 5.47-1.604 9.431-6.266 10.422l-3.094.658z"/></g></svg>