<?xml version="1.0" encoding="UTF-8" standalone="no"?><!DOCTYPE svg PUBLIC "-//W3C//DTD SVG 1.1//EN" "http://www.w3.org/Graphics/SVG/1.1/DTD/svg11.dtd"><svg width="100%" height="100%" viewBox="0 0 742 264" version="1.1" xmlns="http://www.w3.org/2000/svg" xmlns:xlink="http://www.w3.org/1999/xlink" xml:space="preserve" xmlns:serif="http://www.serif.com/" style="fill-rule:evenodd;clip-rule:evenodd;stroke-linejoin:round;stroke-miterlimit:1.41421;"><g transform="matrix(0.978148,-0.207912,0.207912,0.978148,43.6186,67.8415)"><g transform="matrix(100,0,0,100,42.4946,120.245)"><path d="M0.588,0l0.148,-0.7l-0.144,0l-0.13,0.163c-0.025,0.031 -0.055,0.072 -0.055,0.072l-0.002,0c0,0 -0.013,-0.046 -0.025,-0.08l-0.054,-0.155l-0.138,0l-0.148,0.7l0.134,0l0.085,-0.401c0.008,-0.04 0.015,-0.083 0.015,-0.083l0.002,0c0,0 0.012,0.043 0.026,0.08l0.061,0.165l0.002,0l0.137,-0.172c0.026,-0.033 0.055,-0.073 0.055,-0.073l0.002,0c0,0 -0.011,0.041 -0.021,0.086l-0.084,0.398l0.134,0Z" style="fill:#262626;fill-rule:nonzero;"/></g><g transform="matrix(100,0,0,100,104.795,120.245)"><path d="M0.45,0l-0.018,-0.7l-0.148,0l-0.314,0.7l0.141,0l0.045,-0.11l0.162,0l0,0.11l0.132,0Zm-0.131,-0.235l-0.111,0l0.074,-0.176c0.018,-0.043 0.037,-0.1 0.04,-0.113l0.002,0c0,0 -0.004,0.072 -0.004,0.118l-0.001,0.171Z" style="fill:#262626;fill-rule:nonzero;"/></g><g transform="matrix(100,0,0,100,145.295,120.245)"><path d="M0.47,0l-0.057,-0.245c0.098,-0.051 0.148,-0.155 0.148,-0.253c0,-0.104 -0.07,-0.202 -0.199,-0.202l-0.176,0l-0.148,0.7l0.132,0l0.045,-0.215l0.076,0l0.047,0.215l0.132,0Zm-0.228,-0.34l0.05,-0.236l0.048,0c0.061,0 0.089,0.038 0.089,0.091c0,0.082 -0.052,0.145 -0.138,0.145l-0.049,0Z" style="fill:#262626;fill-rule:nonzero;"/></g><g transform="matrix(100,0,0,100,188.795,120.245)"><path d="M0.474,0l-0.085,-0.413l0.232,-0.287l-0.155,0l-0.15,0.193c-0.028,0.036 -0.054,0.074 -0.054,0.074l-0.002,0c0,0 0.013,-0.048 0.021,-0.087l0.038,-0.18l-0.134,0l-0.148,0.7l0.134,0l0.046,-0.22c0.041,-0.048 0.056,-0.073 0.056,-0.073l0.002,0l0.055,0.293l0.144,0Z" style="fill:#262626;fill-rule:nonzero;"/></g><g transform="matrix(100,0,0,100,248.795,120.245)"><path d="M0.014,-0.132c0.017,0.082 0.103,0.142 0.211,0.142c0.131,0 0.245,-0.081 0.245,-0.232c0,-0.163 -0.226,-0.195 -0.226,-0.29c0,-0.043 0.032,-0.073 0.072,-0.073c0.053,0 0.087,0.035 0.091,0.093l0.122,-0.067c-0.015,-0.088 -0.087,-0.151 -0.201,-0.151c-0.127,0 -0.218,0.091 -0.218,0.208c0,0.166 0.226,0.204 0.226,0.296c0,0.063 -0.046,0.091 -0.097,0.091c-0.05,0 -0.099,-0.034 -0.112,-0.084l-0.113,0.067Z" style="fill:#262626;fill-rule:nonzero;"/></g><g transform="matrix(100,0,0,100,289.295,120.245)"><path d="M0.412,0l0.026,-0.125l-0.239,0l0.031,-0.146l0.201,0l0.027,-0.125l-0.201,0l0.038,-0.179l0.239,0l0.026,-0.125l-0.372,0l-0.148,0.7l0.372,0Z" style="fill:#262626;fill-rule:nonzero;"/></g><g transform="matrix(100,0,0,100,333.095,120.245)"><path d="M0.312,-0.191l0.278,-0.509l-0.151,0l-0.1,0.204c-0.026,0.054 -0.057,0.128 -0.057,0.128l-0.002,0c0,0 0,-0.08 -0.004,-0.135l-0.014,-0.197l-0.142,0l0.062,0.503l-0.041,0.197l0.131,0l0.04,-0.191Z" style="fill:#262626;fill-rule:nonzero;"/></g><g transform="matrix(100,0,0,100,373.495,120.245)"><path d="M0.588,0l0.148,-0.7l-0.144,0l-0.13,0.163c-0.025,0.031 -0.055,0.072 -0.055,0.072l-0.002,0c0,0 -0.013,-0.046 -0.025,-0.08l-0.054,-0.155l-0.138,0l-0.148,0.7l0.134,0l0.085,-0.401c0.008,-0.04 0.015,-0.083 0.015,-0.083l0.002,0c0,0 0.012,0.043 0.026,0.08l0.061,0.165l0.002,0l0.137,-0.172c0.026,-0.033 0.055,-0.073 0.055,-0.073l0.002,0c0,0 -0.011,0.041 -0.021,0.086l-0.084,0.398l0.134,0Z" style="fill:#262626;fill-rule:nonzero;"/></g><g transform="matrix(100,0,0,100,433.795,120.245)"><path d="M0.26,0.01c0.226,0 0.3,-0.301 0.3,-0.492c0,-0.125 -0.058,-0.228 -0.194,-0.228c-0.227,0 -0.3,0.303 -0.3,0.493c0,0.125 0.058,0.227 0.194,0.227Zm0.011,-0.125c-0.054,0 -0.074,-0.046 -0.074,-0.113c0,-0.119 0.053,-0.357 0.158,-0.357c0.054,0 0.074,0.046 0.074,0.113c0,0.12 -0.053,0.357 -0.158,0.357Z" style="fill:#262626;fill-rule:nonzero;"/></g><g transform="matrix(100,0,0,100,478.495,120.245)"><path d="M0.384,-0.228c-0.015,0.068 -0.033,0.113 -0.096,0.113c-0.048,0 -0.071,-0.027 -0.071,-0.073c0,-0.012 0.002,-0.025 0.005,-0.039l0.1,-0.473l-0.134,0l-0.099,0.466c-0.005,0.021 -0.007,0.041 -0.007,0.059c0,0.121 0.092,0.185 0.198,0.185c0.121,0 0.201,-0.064 0.237,-0.232l0.101,-0.478l-0.134,0l-0.1,0.472Z" style="fill:#262626;fill-rule:nonzero;"/></g><g transform="matrix(100,0,0,100,523.995,120.245)"><path d="M0.47,0l-0.057,-0.245c0.098,-0.051 0.148,-0.155 0.148,-0.253c0,-0.104 -0.07,-0.202 -0.199,-0.202l-0.176,0l-0.148,0.7l0.132,0l0.045,-0.215l0.076,0l0.047,0.215l0.132,0Zm-0.228,-0.34l0.05,-0.236l0.048,0c0.061,0 0.089,0.038 0.089,0.091c0,0.082 -0.052,0.145 -0.138,0.145l-0.049,0Z" style="fill:#262626;fill-rule:nonzero;"/></g></g><g transform="matrix(0.978148,-0.207912,0.207912,0.978148,-60.285,190.637)"><g transform="matrix(35.6845,0,0,35.6845,44.09,85.2279)"><path d="M0.223,0l0.129,-0.612l0.143,0l0.019,-0.088l-0.381,0l-0.019,0.088l0.143,0l-0.13,0.612l0.096,0Z" style="fill:#00a4d4;fill-rule:nonzero;"/></g><g transform="matrix(35.6845,0,0,35.6845,59.8626,85.2279)"><path d="M0.459,0l0.148,-0.7l-0.094,0l-0.07,0.333l-0.231,0l0.071,-0.333l-0.095,0l-0.148,0.7l0.095,0l0.058,-0.279l0.231,0l-0.059,0.279l0.094,0Z" style="fill:#00a4d4;fill-rule:nonzero;"/></g><g transform="matrix(35.6845,0,0,35.6845,80.8808,85.2279)"><path d="M0.404,0l0.018,-0.088l-0.27,0l0.043,-0.201l0.231,0l0.019,-0.088l-0.231,0l0.049,-0.234l0.271,0l0.018,-0.089l-0.364,0l-0.148,0.7l0.364,0Z" style="fill:#00a4d4;fill-rule:nonzero;"/></g><g transform="matrix(55.2083,0,0,55.2083,111.491,85.2279)"><path d="M0.5,-0.361c0.013,-0.024 -0.017,-0.042 -0.024,-0.042c-0.047,0.069 -0.116,0.161 -0.199,0.227c-0.065,0.051 -0.142,0.076 -0.201,0.063c0.013,-0.081 0.083,-0.222 0.187,-0.272c-0.023,0.027 -0.047,0.062 -0.049,0.097c-0.002,0.033 0.011,0.06 0.039,0.06c0.022,-0.029 0.108,-0.123 0.108,-0.147c0,-0.016 -0.017,-0.036 -0.039,-0.045c-0.006,-0.025 -0.027,-0.048 -0.076,-0.048c-0.104,0 -0.246,0.159 -0.246,0.301c0,0.031 0.014,0.057 0.036,0.07c0.012,0.061 0.058,0.104 0.119,0.104c0.124,0 0.285,-0.268 0.345,-0.368Z" style="fill:#00a4d4;fill-rule:nonzero;"/></g><g transform="matrix(55.2083,0,0,55.2083,130.924,85.2279)"><path d="M0.203,0.007c0.084,0 0.245,-0.252 0.309,-0.368c0.014,-0.024 -0.02,-0.041 -0.022,-0.042c-0.057,0.08 -0.171,0.245 -0.296,0.291c0.043,-0.094 0.117,-0.224 0.142,-0.264c0.001,-0.017 -0.022,-0.046 -0.034,-0.042c-0.041,0.001 -0.068,-0.003 -0.105,-0.016c0.011,-0.019 0.028,-0.05 0.031,-0.059c0,-0.016 -0.027,-0.041 -0.058,-0.041c-0.034,0 -0.079,0.078 -0.079,0.109c0,0.013 0.008,0.027 0.022,0.04c-0.026,0.04 -0.061,0.096 -0.099,0.141c-0.024,0.04 0.01,0.078 0.011,0.062c0.045,-0.052 0.102,-0.14 0.124,-0.178c0.015,0.008 0.031,0.014 0.049,0.018c-0.069,0.102 -0.105,0.17 -0.105,0.211c0,0.037 0.02,0.06 0.043,0.071c0.009,0.033 0.029,0.067 0.067,0.067Z" style="fill:#00a4d4;fill-rule:nonzero;"/></g><g transform="matrix(55.2083,0,0,55.2083,151.241,85.2279)"><path d="M0.53,-0.361c0.012,-0.024 -0.016,-0.042 -0.023,-0.042c-0.11,0.17 -0.239,0.31 -0.378,0.305c-0.009,0 -0.019,-0.002 -0.029,-0.005c0.001,-0.033 0.009,-0.069 0.023,-0.104c0.008,0.018 0.031,0.039 0.056,0.039c0.072,0 0.189,-0.115 0.189,-0.203c0,-0.02 -0.014,-0.038 -0.031,-0.048c-0.005,-0.024 -0.021,-0.051 -0.08,-0.051c-0.107,0 -0.248,0.168 -0.248,0.292c0,0.038 0.016,0.065 0.039,0.08c0.012,0.067 0.063,0.105 0.127,0.105c0.107,0 0.295,-0.247 0.355,-0.368Zm-0.4,0.137c0.037,-0.085 0.105,-0.162 0.176,-0.181c-0.028,0.07 -0.115,0.166 -0.176,0.181Z" style="fill:#00a4d4;fill-rule:nonzero;"/></g><g transform="matrix(55.2083,0,0,55.2083,172.551,85.2279)"><path d="M0.301,0.007c0.084,0 0.251,-0.252 0.316,-0.368c0.013,-0.024 -0.023,-0.042 -0.023,-0.042c-0.056,0.08 -0.172,0.249 -0.296,0.299c0.039,-0.097 0.12,-0.247 0.161,-0.302c0.001,-0.032 -0.076,-0.072 -0.103,-0.034l-0.023,0.035c-0.004,-0.03 -0.031,-0.062 -0.087,-0.062c-0.089,0 -0.239,0.156 -0.239,0.3c0,0.031 0.009,0.056 0.027,0.07c0.002,0.041 0.024,0.104 0.075,0.104c0.03,0 0.071,-0.041 0.112,-0.097c0.003,0.003 0.006,0.005 0.009,0.007c0.004,0.036 0.029,0.09 0.071,0.09Zm-0.227,-0.118c0.017,-0.087 0.107,-0.259 0.231,-0.283c-0.022,0.062 -0.111,0.24 -0.231,0.283Z" style="fill:#00a4d4;fill-rule:nonzero;"/></g><g transform="matrix(55.2083,0,0,55.2083,198.665,85.2279)"><path d="M0.117,0.007c0.083,-0.002 0.293,-0.242 0.343,-0.373c0.009,-0.024 -0.021,-0.041 -0.023,-0.042c-0.058,0.081 -0.195,0.258 -0.327,0.305c0.031,-0.079 0.079,-0.181 0.12,-0.261c0.031,-0.001 0.059,-0.002 0.077,-0.005c0.029,-0.004 0.056,-0.063 0.042,-0.074c-0.005,-0.004 -0.035,-0.006 -0.074,-0.007c0.013,-0.025 0.023,-0.043 0.026,-0.048c0.012,-0.018 -0.024,-0.059 -0.072,-0.059c-0.02,0.028 -0.043,0.065 -0.066,0.107c-0.048,0.001 -0.088,0.004 -0.094,0.007c-0.023,0.012 -0.001,0.07 0.025,0.072c0.008,0.001 0.017,0.002 0.025,0.002c-0.052,0.104 -0.097,0.211 -0.097,0.254c0,0.026 0.007,0.044 0.03,0.053c0.009,0.033 0.031,0.07 0.065,0.069Z" style="fill:#00a4d4;fill-rule:nonzero;"/></g><g transform="matrix(55.2083,0,0,55.2083,216.055,85.2279)"><path d="M0.22,-0.474c0.053,0 0.095,-0.04 0.095,-0.06c0,-0.025 -0.01,-0.039 -0.02,-0.046c0.015,-0.002 0.031,-0.002 0.048,0.002c0.002,-0.007 -0.007,-0.062 -0.079,-0.062c-0.059,0 -0.102,0.049 -0.102,0.086c0,0.005 0.001,0.012 0.003,0.017c-0.002,0.014 0.003,0.063 0.055,0.063Zm-0.017,-0.058c0.014,-0.016 0.041,-0.034 0.073,-0.044c-0.01,0.026 -0.039,0.042 -0.073,0.044Zm-0.098,0.539c0.083,-0.002 0.251,-0.257 0.316,-0.373c0.013,-0.024 -0.022,-0.042 -0.023,-0.042c-0.058,0.082 -0.18,0.261 -0.309,0.304c0.066,-0.166 0.151,-0.27 0.151,-0.291c0,-0.017 -0.048,-0.056 -0.08,-0.056c-0.064,0.08 -0.169,0.281 -0.164,0.331c0.003,0.029 0.021,0.047 0.043,0.055c0.009,0.034 0.032,0.073 0.066,0.072Z" style="fill:#00a4d4;fill-rule:nonzero;"/></g><g transform="matrix(55.2083,0,0,55.2083,231.348,85.2279)"><path d="M0.332,-0.07c0.11,0 0.249,-0.261 0.27,-0.298c0.014,-0.024 -0.012,-0.042 -0.023,-0.042c-0.051,0.07 -0.164,0.241 -0.275,0.259c0.008,-0.011 0.126,-0.157 0.126,-0.26c0,-0.037 -0.034,-0.058 -0.064,-0.058c-0.026,0 -0.075,0.074 -0.093,0.118c-0.014,0.035 -0.02,0.082 -0.018,0.127c-0.052,0.061 -0.109,0.115 -0.163,0.132c0.045,-0.113 0.098,-0.219 0.156,-0.318c-0.001,-0.018 -0.057,-0.048 -0.09,-0.047c-0.017,0 -0.158,0.253 -0.158,0.322c0,0.035 0.03,0.056 0.059,0.064c0.004,0.034 0.022,0.078 0.06,0.078c0.033,0 0.097,-0.053 0.158,-0.124c0.013,0.028 0.031,0.047 0.055,0.047Z" style="fill:#00a4d4;fill-rule:nonzero;"/></g><g transform="matrix(55.2083,0,0,55.2083,256.302,85.2279)"><path d="M0.389,-0.19c0,-0.019 -0.011,-0.031 -0.027,-0.038l-0.004,0c-0.056,0.089 -0.162,0.14 -0.235,0.14c-0.008,0 -0.016,-0.001 -0.023,-0.002c-0.001,-0.037 0.007,-0.078 0.023,-0.117c0.008,0.018 0.031,0.039 0.056,0.039c0.072,0 0.189,-0.115 0.189,-0.203c0,-0.02 -0.014,-0.038 -0.031,-0.048c-0.005,-0.024 -0.021,-0.051 -0.08,-0.051c-0.107,0 -0.248,0.168 -0.248,0.292c0,0.033 0.012,0.057 0.03,0.073c0.006,0.077 0.073,0.112 0.121,0.112c0.114,0 0.229,-0.156 0.229,-0.197Zm-0.259,-0.034c0.037,-0.085 0.105,-0.162 0.176,-0.181c-0.028,0.07 -0.115,0.166 -0.176,0.181Z" style="fill:#00a4d4;fill-rule:nonzero;"/></g><g transform="matrix(45.8333,0,0,45.8333,289.987,85.2279)"><path d="M0.414,-0.252l0.019,-0.088l-0.227,0l0.057,-0.271l0.267,0l0.018,-0.089l-0.36,0l-0.148,0.7l0.094,0l0.053,-0.252l0.227,0Z" style="fill:#00a4d4;fill-rule:nonzero;"/></g><g transform="matrix(45.8333,0,0,45.8333,311.987,85.2279)"><path d="M0.403,-0.228c-0.021,0.099 -0.057,0.15 -0.131,0.15c-0.06,0 -0.098,-0.034 -0.098,-0.1c0,-0.015 0.002,-0.031 0.006,-0.049l0.1,-0.473l-0.095,0l-0.099,0.466c-0.005,0.022 -0.007,0.043 -0.007,0.063c0,0.118 0.084,0.181 0.188,0.181c0.116,0 0.195,-0.065 0.23,-0.232l0.101,-0.478l-0.095,0l-0.1,0.472Z" style="fill:#00a4d4;fill-rule:nonzero;"/></g><g transform="matrix(45.8333,0,0,45.8333,337.517,85.2279)"><path d="M0.359,0l0.018,-0.088l-0.224,0l0.13,-0.612l-0.095,0l-0.148,0.7l0.319,0Z" style="fill:#00a4d4;fill-rule:nonzero;"/></g><g transform="matrix(45.8333,0,0,45.8333,355.85,85.2279)"><path d="M0.359,0l0.018,-0.088l-0.224,0l0.13,-0.612l-0.095,0l-0.148,0.7l0.319,0Z" style="fill:#00a4d4;fill-rule:nonzero;"/></g><g transform="matrix(45.8333,0,0,45.8333,374.183,85.2279)"><path d="M0.29,-0.291l0.017,-0.082l-0.236,0l-0.018,0.082l0.237,0Z" style="fill:#00a4d4;fill-rule:nonzero;"/></g><g transform="matrix(45.8333,0,0,45.8333,387.979,85.2279)"><path d="M0.521,-0.569c-0.02,-0.08 -0.09,-0.141 -0.196,-0.141c-0.118,0 -0.205,0.082 -0.205,0.194c0,0.18 0.247,0.193 0.247,0.322c0,0.074 -0.056,0.116 -0.123,0.116c-0.062,0 -0.118,-0.041 -0.138,-0.095l-0.08,0.047c0.025,0.08 0.108,0.136 0.21,0.136c0.121,0 0.225,-0.076 0.225,-0.214c0,-0.184 -0.247,-0.191 -0.247,-0.318c0,-0.062 0.049,-0.1 0.104,-0.1c0.062,0 0.106,0.042 0.117,0.099l0.086,-0.046Z" style="fill:#00a4d4;fill-rule:nonzero;"/></g><g transform="matrix(45.8333,0,0,45.8333,410.208,85.2279)"><path d="M0.223,0l0.129,-0.612l0.143,0l0.019,-0.088l-0.381,0l-0.019,0.088l0.143,0l-0.13,0.612l0.096,0Z" style="fill:#00a4d4;fill-rule:nonzero;"/></g><g transform="matrix(45.8333,0,0,45.8333,429.55,85.2279)"><path d="M0.441,0l-0.038,-0.7l-0.099,0l-0.334,0.7l0.1,0c0.023,-0.047 0.045,-0.095 0.068,-0.143l0.201,0c0.003,0.048 0.006,0.096 0.008,0.143l0.094,0Zm-0.103,-0.232l-0.162,0l0.106,-0.224c0.02,-0.042 0.037,-0.089 0.043,-0.108l0.002,0c0,0.017 0.001,0.065 0.003,0.121l0.008,0.211Z" style="fill:#00a4d4;fill-rule:nonzero;"/></g><g transform="matrix(45.8333,0,0,45.8333,451.642,85.2279)"><path d="M0.394,-0.193c-0.033,0.069 -0.079,0.115 -0.139,0.115c-0.074,0 -0.102,-0.062 -0.102,-0.148c0,-0.135 0.06,-0.396 0.201,-0.396c0.067,0 0.096,0.051 0.101,0.125l0.088,-0.04c-0.014,-0.1 -0.069,-0.173 -0.182,-0.173c-0.227,0 -0.3,0.31 -0.3,0.492c0,0.127 0.053,0.228 0.186,0.228c0.102,0 0.173,-0.06 0.221,-0.149l-0.074,-0.054Z" style="fill:#00a4d4;fill-rule:nonzero;"/></g><g transform="matrix(45.8333,0,0,45.8333,474.237,85.2279)"><path d="M0.45,0l-0.109,-0.401l0.251,-0.299l-0.112,0l-0.194,0.238c-0.03,0.037 -0.055,0.068 -0.075,0.091l-0.002,0c0.001,0 0.013,-0.052 0.022,-0.094l0.05,-0.235l-0.095,0l-0.148,0.7l0.095,0l0.046,-0.217c0.057,-0.066 0.083,-0.101 0.083,-0.101l0.002,0l0.085,0.318l0.101,0Z" style="fill:#00a4d4;fill-rule:nonzero;"/></g><g transform="matrix(45.8333,0,0,45.8333,508.383,85.2279)"><path d="M0.566,0l0.307,-0.7l-0.1,0l-0.178,0.422c-0.025,0.059 -0.05,0.125 -0.05,0.125l-0.002,0c0,0 0.003,-0.044 0.001,-0.125l-0.011,-0.422l-0.082,0l-0.187,0.422c-0.026,0.059 -0.052,0.125 -0.052,0.125l-0.002,0c0,0 0.004,-0.073 0.004,-0.126l-0.003,-0.421l-0.094,0l0.011,0.7l0.1,0l0.196,-0.435c0.016,-0.036 0.028,-0.07 0.028,-0.07l0.002,0c0,0 -0.003,0.015 -0.001,0.075l0.013,0.43l0.1,0Z" style="fill:#00a4d4;fill-rule:nonzero;"/></g><g transform="matrix(45.8333,0,0,45.8333,543.492,85.2279)"><path d="M0.404,0l0.018,-0.088l-0.27,0l0.043,-0.201l0.231,0l0.019,-0.088l-0.231,0l0.049,-0.234l0.271,0l0.018,-0.089l-0.364,0l-0.148,0.7l0.364,0Z" style="fill:#00a4d4;fill-rule:nonzero;"/></g><g transform="matrix(45.8333,0,0,45.8333,565.996,85.2279)"><path d="M0.241,0c0.16,0 0.262,-0.09 0.262,-0.223c0,-0.07 -0.043,-0.118 -0.1,-0.138l0,-0.002c0.078,-0.023 0.137,-0.089 0.137,-0.18c0,-0.095 -0.061,-0.157 -0.183,-0.157l-0.169,0l-0.148,0.7l0.201,0Zm-0.09,-0.088l0.05,-0.235l0.101,0c0.074,0 0.108,0.04 0.108,0.1c0,0.087 -0.055,0.135 -0.157,0.135l-0.102,0Zm0.067,-0.317l0.045,-0.207l0.073,0c0.075,0 0.11,0.027 0.11,0.082c0,0.078 -0.053,0.125 -0.157,0.125l-0.071,0Z" style="fill:#00a4d4;fill-rule:nonzero;"/></g><g transform="matrix(45.8333,0,0,45.8333,602.021,85.2279)"><path d="M0.207,0c0.177,0 0.28,-0.134 0.32,-0.313c0.01,-0.045 0.016,-0.092 0.016,-0.135c0,-0.133 -0.061,-0.252 -0.213,-0.252l-0.15,0l-0.148,0.7l0.175,0Zm-0.065,-0.088l0.111,-0.523l0.073,0c0.084,0 0.124,0.072 0.124,0.169c0,0.203 -0.106,0.354 -0.232,0.354l-0.076,0Z" style="fill:#00a4d4;fill-rule:nonzero;"/></g><g transform="matrix(45.8333,0,0,45.8333,626.267,85.2279)"><path d="M0.404,0l0.018,-0.088l-0.27,0l0.043,-0.201l0.231,0l0.019,-0.088l-0.231,0l0.049,-0.234l0.271,0l0.018,-0.089l-0.364,0l-0.148,0.7l0.364,0Z" style="fill:#00a4d4;fill-rule:nonzero;"/></g><g transform="matrix(45.8333,0,0,45.8333,648.771,85.2279)"><path d="M0.252,0l0.331,-0.7l-0.1,0l-0.186,0.406c-0.027,0.059 -0.049,0.116 -0.067,0.16l-0.002,0c0.001,-0.026 -0.001,-0.105 -0.003,-0.173l-0.014,-0.393l-0.093,0l0.035,0.7l0.099,0Z" style="fill:#00a4d4;fill-rule:nonzero;"/></g><g transform="matrix(45.8333,0,0,45.8333,670.587,85.2279)"><path d="M0.404,0l0.018,-0.088l-0.27,0l0.043,-0.201l0.231,0l0.019,-0.088l-0.231,0l0.049,-0.234l0.271,0l0.018,-0.089l-0.364,0l-0.148,0.7l0.364,0Z" style="fill:#00a4d4;fill-rule:nonzero;"/></g><g transform="matrix(45.8333,0,0,45.8333,693.092,85.2279)"><path d="M0.359,0l0.018,-0.088l-0.224,0l0.13,-0.612l-0.095,0l-0.148,0.7l0.319,0Z" style="fill:#00a4d4;fill-rule:nonzero;"/></g><g transform="matrix(45.8333,0,0,45.8333,711.425,85.2279)"><path d="M0.247,0.01c0.209,0 0.3,-0.268 0.3,-0.491c0,-0.127 -0.053,-0.229 -0.186,-0.229c-0.209,0 -0.301,0.27 -0.301,0.492c0,0.128 0.053,0.228 0.187,0.228Zm0.008,-0.088c-0.077,0 -0.102,-0.064 -0.102,-0.152c0,-0.177 0.079,-0.391 0.2,-0.391c0.077,0 0.102,0.064 0.102,0.152c0,0.179 -0.08,0.391 -0.2,0.391Z" style="fill:#00a4d4;fill-rule:nonzero;"/></g><g transform="matrix(45.8333,0,0,45.8333,735.992,85.2279)"><path d="M0.133,0l0.041,-0.195l0.082,0c0.194,0 0.284,-0.158 0.284,-0.309c0,-0.11 -0.063,-0.196 -0.189,-0.196l-0.163,0l-0.149,0.7l0.094,0Zm0.06,-0.284l0.07,-0.328l0.072,0c0.077,0 0.113,0.044 0.113,0.114c0,0.115 -0.075,0.214 -0.182,0.214l-0.073,0Z" style="fill:#00a4d4;fill-rule:nonzero;"/></g><g transform="matrix(45.8333,0,0,45.8333,758.725,85.2279)"><path d="M0.404,0l0.018,-0.088l-0.27,0l0.043,-0.201l0.231,0l0.019,-0.088l-0.231,0l0.049,-0.234l0.271,0l0.018,-0.089l-0.364,0l-0.148,0.7l0.364,0Z" style="fill:#00a4d4;fill-rule:nonzero;"/></g><g transform="matrix(45.8333,0,0,45.8333,781.229,85.2279)"><path d="M0.449,0l-0.066,-0.244c0.107,-0.048 0.159,-0.163 0.159,-0.268c0,-0.105 -0.067,-0.188 -0.192,-0.188l-0.163,0l-0.148,0.7l0.094,0l0.046,-0.219l0.063,0c0.019,0 0.037,-0.001 0.054,-0.003l0.058,0.222l0.095,0Zm-0.251,-0.308l0.064,-0.304l0.072,0c0.078,0 0.114,0.044 0.114,0.11c0,0.122 -0.077,0.194 -0.181,0.194l-0.069,0Z" style="fill:#00a4d4;fill-rule:nonzero;"/></g></g></svg>