<svg viewBox="0 0 531 145" preserveAspectRatio="xMidYMin slice" xmlns="http://www.w3.org/2000/svg" fill-rule="evenodd" clip-rule="evenodd" stroke-linecap="round" stroke-linejoin="bevel" stroke-miterlimit="1.5"><path d="M223.687 89.265l-.018-17.171-3.38.719-2.239 4.475c-.432.852-.932 1.964-.932 1.964l-.047.01s-.535-1.015-.986-1.753l-2.041-3.37-3.24.69.019 17.17 3.146-.668-.006-9.838a65.143 65.143 0 0 0-.062-2.023l.047-.01s.496.95 1.01 1.748l2.255 3.57.047-.01 2.358-4.722c.445-.904.927-1.988.927-1.988l.047-.01s-.054 1.017-.064 2.124l.014 9.762 3.145-.669zM235.073 86.845l-3.915-16.343-3.475.739-3.878 18 3.31-.704.508-2.807 3.803-.808.548 2.582 3.1-.659zm-4.248-4.863l-2.605.554.858-4.5c.208-1.1.37-2.533.376-2.853l.047-.01s.265 1.71.495 2.79l.83 4.02z" fill="#fff" fill-rule="nonzero"/><path d="M245.05 84.725l-2.56-5.468c2.046-1.686 2.7-4.377 2.212-6.677-.52-2.442-2.652-4.393-5.68-3.75l-4.132.879.019 17.171 3.099-.659-.017-5.271 1.784-.38 2.177 4.813 3.098-.658zm-7.049-6.844l-.004-5.79 1.127-.24c1.432-.304 2.28.448 2.544 1.692.409 1.925-.497 3.664-2.516 4.093l-1.15.245zM255.356 82.534l-4.056-9.271 4.014-7.895-3.639.773-2.558 5.28c-.478.984-.898 2.006-.898 2.006l-.047.01s.065-1.192.059-2.147l-.007-4.415-3.145.668.018 17.172 3.146-.67-.018-5.393c.723-1.332.95-1.993.95-1.993l.047-.01 2.754 6.604 3.38-.719zM257.984 78.737c.808 1.84 3.126 2.82 5.662 2.28 3.075-.653 5.347-3.124 4.594-6.669-.814-3.826-6.279-3.45-6.753-5.68-.214-1.01.387-1.873 1.326-2.073 1.244-.264 2.217.388 2.6 1.73l2.53-2.182c-.791-1.991-2.796-3.11-5.472-2.542-2.981.634-4.663 3.224-4.08 5.97.829 3.898 6.324 3.662 6.783 5.822.314 1.479-.626 2.365-1.823 2.62-1.174.25-2.494-.304-3.049-1.413l-2.318 2.137zM277.493 77.829l-.013-3.065-5.61 1.193-.001-3.582 4.718-1.003.01-3.07-4.718 1.004-.001-4.392 5.61-1.193-.013-3.064-8.733 1.856.019 17.172 8.732-1.856z" fill="#fff" fill-rule="nonzero"/><path d="M284.475 71.658l3.986-13.336-3.544.753-1.33 5.288c-.34 1.398-.7 3.29-.7 3.29l-.046.01s-.4-1.878-.768-3.15l-1.312-4.554-3.333.708 3.965 11.499.02 4.83 3.076-.654-.014-4.684zM301.391 72.749l-.018-17.172-3.38.719-2.239 4.475c-.432.853-.932 1.965-.932 1.965l-.047.01s-.535-1.015-.986-1.753l-2.041-3.37-3.24.689.019 17.171 3.146-.668-.006-9.838a65.143 65.143 0 0 0-.062-2.024l.047-.01s.496.95 1.01 1.749l2.255 3.569.047-.01 2.358-4.721c.445-.905.927-1.989.927-1.989l.047-.01s-.054 1.018-.064 2.124l.014 9.762 3.145-.668z" fill="#fff" fill-rule="nonzero"/><path d="M307.897 71.611c5.306-1.127 5.54-8.563 4.588-13.047-.624-2.934-2.5-5.063-5.692-4.384-5.33 1.133-5.53 8.61-4.583 13.07.624 2.935 2.494 5.04 5.687 4.361zm-.365-2.989c-1.268.27-1.967-.71-2.301-2.283-.594-2.794-.538-8.646 1.927-9.17 1.268-.27 1.967.711 2.301 2.284.6 2.817.538 8.645-1.927 9.169z" fill="#fff" fill-rule="nonzero"/><path d="M320.114 63.175c-.013 1.671-.21 2.817-1.69 3.132-1.127.24-1.801-.28-2.03-1.36a4.548 4.548 0 0 1-.078-.94l-.013-11.603-3.145.669v11.433c-.012.518.041.998.13 1.42.605 2.84 3.084 3.884 5.572 3.355 2.84-.604 4.4-2.505 4.406-6.629l-.014-11.725-3.146.669.008 11.579zM333.952 65.828l-2.56-5.467c2.046-1.686 2.7-4.377 2.211-6.678-.519-2.441-2.65-4.393-5.68-3.75l-4.13.88.018 17.17 3.098-.658-.016-5.272 1.784-.38 2.176 4.814 3.099-.66zm-7.049-6.844l-.004-5.79 1.127-.24c1.432-.304 2.279.449 2.543 1.693.41 1.925-.497 3.663-2.516 4.092l-1.15.245z" fill="#fff" fill-rule="nonzero"/><g><path d="M185.442 112.973l-.009-5.356 1.198-.255.003-.77-3.192.678-.003.77 1.198-.254.001 5.358.804-.17zM191.122 111.766l-.007-6.128-.787.168.006 2.914-1.935.411.002-2.916-.796.17.007 6.127.796-.17-.011-2.44 1.935-.41.002 2.441.788-.167zM195.595 110.815l-.006-.77-2.261.482.002-1.76 1.935-.412.002-.771-1.935.411-.006-2.047 2.27-.483-.007-.777-3.05.648.007 6.127 3.05-.648zM204.883 103.951c.102-.347-.336-.498-.427-.478-.42 1.024-1.06 2.406-1.954 3.49-.702.84-1.631 1.376-2.431 1.37-.055-1.085.464-3.106 1.674-4.04-.224.413-.439.933-.368 1.392.065.433.308.747.67.67.206-.436 1.062-1.891.995-2.203-.044-.207-.319-.42-.629-.475-.147-.308-.482-.548-1.117-.413-1.348.286-2.75 2.738-2.36 4.579.086.401.34.7.66.808.324.757 1.038 1.188 1.829 1.02 1.607-.342 2.955-4.259 3.458-5.72z" fill="#fff" fill-rule="nonzero"/><path d="M206.61 108.569c1.088-.231 2.48-3.941 2.99-5.62.115-.35-.372-.477-.4-.484-.52 1.193-1.542 3.646-3.035 4.586.298-1.336.899-3.225 1.113-3.812-.034-.223-.412-.536-.557-.451-.528.126-.89.148-1.405.082.09-.277.226-.725.24-.85-.044-.208-.463-.457-.865-.372-.44.094-.809 1.229-.724 1.63.036.169.178.328.396.458-.227.59-.526 1.413-.895 2.1-.2.585.345.984.313.774.44-.798.937-2.096 1.117-2.649.217.063.44.096.685.099-.613 1.512-.893 2.492-.78 3.023.102.48.425.723.753.802.208.403.56.789 1.053.684z" fill="#fff" fill-rule="nonzero"/><path d="M214.603 101.885c.09-.344-.323-.5-.414-.481-.957 2.506-2.243 4.676-4.059 4.994a1.378 1.378 0 0 1-.39.015c-.077-.43-.073-.919.012-1.411.154.211.51.42.833.351.934-.198 2.133-2.01 1.89-3.151-.054-.26-.285-.454-.533-.537-.131-.297-.413-.603-1.178-.44-1.386.294-2.751 2.86-2.41 4.467.105.492.387.798.726.93.34.835 1.106 1.187 1.936 1.01 1.386-.295 3.143-4.014 3.587-5.747zm-4.807 2.877c.245-1.203.915-2.388 1.783-2.83-.17.984-1.034 2.468-1.783 2.83z" fill="#fff" fill-rule="nonzero"/><path d="M217.651 106.222c1.089-.232 2.56-3.958 3.082-5.64.102-.347-.414-.481-.414-.481-.505 1.191-1.543 3.7-3.012 4.69.238-1.364.874-3.531 1.254-4.357-.075-.418-1.183-.724-1.428-.157l-.202.517c-.134-.378-.572-.718-1.298-.564-1.154.245-2.668 2.68-2.271 4.547.085.401.27.7.542.832.14.526.598 1.282 1.259 1.142.389-.083.807-.727 1.184-1.566.047.03.092.048.136.066.151.456.624 1.087 1.168.97zm-3.267-.904c-.02-1.175.674-3.652 2.215-4.304-.115.864-.778 3.416-2.215 4.304z" fill="#fff" fill-rule="nonzero"/><path d="M221.397 105.426c1.07-.255 3.13-3.944 3.418-5.78.05-.335-.385-.473-.414-.48-.528 1.21-1.816 3.88-3.398 4.853.184-1.109.526-2.563.837-3.713.399-.098.759-.188.984-.277.365-.132.552-.97.34-1.075-.076-.038-.47.019-.978.113.1-.36.18-.62.205-.693.105-.267-.474-.699-1.096-.567-.182.418-.378.961-.56 1.569-.62.145-1.13.294-1.2.35-.265.219.18.91.523.864.106-.01.225-.021.33-.043-.388 1.491-.677 3.002-.558 3.56.071.336.212.55.535.603.207.403.594.822 1.032.716z" fill="#fff" fill-rule="nonzero"/><path d="M225.49 98.04c.686-.146 1.12-.78 1.065-1.04-.069-.323-.237-.477-.386-.54.19-.067.397-.112.628-.107.007-.096-.262-.784-1.195-.585-.764.162-1.187.916-1.085 1.395a.673.673 0 0 0 .086.212c.013.187.212.808.886.665zm-.38-.705c.137-.246.437-.553.824-.771-.058.364-.39.652-.825.771zm.214 7.256c1.07-.255 2.545-4.022 3.068-5.705.102-.347-.401-.484-.414-.48-.526 1.222-1.614 3.878-3.167 4.79.398-2.333 1.213-3.915 1.155-4.187-.047-.22-.776-.594-1.191-.505-.61 1.213-1.416 4.107-1.214 4.741a.84.84 0 0 0 .71.595c.21.415.615.858 1.053.751z" fill="#fff" fill-rule="nonzero"/><path d="M231.644 102.205c1.426-.303 2.508-4.07 2.678-4.606.116-.35-.271-.512-.414-.481-.468 1.047-1.461 3.575-2.85 4.114.073-.165 1.2-2.382.917-3.717-.102-.48-.6-.658-.99-.575-.337.071-.768 1.165-.88 1.785-.085.492-.033 1.118.117 1.696-.506.934-1.096 1.79-1.75 2.16a31.103 31.103 0 0 1 1.147-4.552c-.063-.23-.871-.465-1.296-.36-.22.046-1.351 3.713-1.161 4.608.096.453.543.643.94.667.146.43.5.95.993.845.428-.09 1.112-.954 1.707-2.042.245.327.53.524.842.458z" fill="#fff" fill-rule="nonzero"/><path d="M237.91 99.247c-.052-.246-.228-.371-.454-.418l-.052.011c-.48 1.308-1.714 2.26-2.66 2.462-.104.022-.21.031-.304.037a3.89 3.89 0 0 1-.024-1.58c.153.212.509.42.833.352.933-.199 2.133-2.011 1.89-3.152-.055-.26-.286-.454-.534-.537-.13-.297-.412-.603-1.177-.44-1.387.295-2.751 2.86-2.41 4.467.091.428.313.706.59.864.29.981 1.255 1.25 1.877 1.118 1.477-.314 2.538-2.653 2.425-3.184zm-3.45.273c.245-1.204.914-2.389 1.782-2.83-.17.984-1.033 2.467-1.782 2.83zM245.178 97.442l.003-.99-2.442.519-.007-3.046 2.873-.61-.01-1-3.873.824.008 7.87 1.011-.215-.006-2.833 2.443-.519zM250.279 96.628c0 1.113-.27 1.744-1.066 1.913-.646.138-1.133-.141-1.284-.852a2.479 2.479 0 0 1-.047-.54l-.006-5.318-1.022.217v5.24a3.11 3.11 0 0 0 .07.694c.27 1.27 1.317 1.755 2.436 1.518 1.248-.266 1.95-1.146 1.944-3.023l-.006-5.374-1.023.218.004 5.307zM256.32 97.908l-.007-.988-2.41.512-.001-6.882-1.023.217.009 7.87 3.432-.73zM260.624 96.993l-.008-.988-2.41.512v-6.882l-1.023.217.009 7.87 3.432-.73zM263.52 93.105l-.005-.921-2.539.54-.006.923 2.55-.542zM268.608 88.897c-.398-.815-1.29-1.311-2.431-1.069-1.27.27-2.018 1.351-1.762 2.556.411 1.937 3.099 1.512 3.394 2.9.17.796-.337 1.376-1.058 1.53a1.647 1.647 0 0 1-1.702-.707l-.754.689c.452.803 1.473 1.216 2.57.983 1.303-.277 2.248-1.333 1.932-2.818-.42-1.98-3.094-1.49-3.384-2.856-.142-.667.298-1.188.89-1.314.667-.142 1.236.21 1.485.798l.82-.692zM271.922 94.591l-.012-6.88 1.538-.326.004-.99-4.1.87-.003.99 1.539-.326v6.882l1.034-.22zM278.808 93.128l-2.01-7.445-1.065.226-1.993 8.296 1.076-.229c.14-.558.267-1.125.405-1.694l2.162-.46c.142.51.284 1.02.413 1.52l1.012-.214zm-1.64-2.26l-1.742.37.628-2.653a10.7 10.7 0 0 0 .216-1.26l.021-.005c.04.183.16.697.31 1.295l.568 2.252zM283.047 90.056c-.197.818-.587 1.418-1.233 1.556-.796.169-1.239-.434-1.436-1.36-.308-1.452-.26-4.398 1.257-4.72.721-.153 1.15.33 1.373 1.114l.855-.632c-.379-1.044-1.138-1.703-2.354-1.445-2.442.52-2.518 4.022-2.102 5.98.29 1.366 1.091 2.332 2.522 2.028 1.098-.234 1.725-1.042 2.038-2.109l-.92-.412zM289.395 90.877l-2.09-4.065 2.017-3.791-1.205.256-1.543 3.004c-.238.467-.436.858-.599 1.151l-.021.005c.01-.003.02-.59.021-1.062v-2.643l-1.021.217.008 7.87 1.022-.217-.001-2.44c.462-.84.662-1.276.662-1.276l.022-.005 1.641 3.227 1.087-.23zM298.66 88.908l1.701-8.234-1.076.23-.95 4.947c-.134.692-.252 1.459-.252 1.459l-.021.005s-.069-.48-.275-1.348l-1.084-4.515-.882.188-1.047 4.968c-.145.694-.274 1.464-.274 1.464l-.021.004s-.124-.794-.245-1.365l-.995-4.523-1.012.215 1.72 7.507 1.075-.229 1.114-5.128c.09-.424.142-.818.142-.818l.021-.004s.002.168.16.809l1.124 4.597 1.076-.229zM305.158 87.527l-.007-.988-2.906.617.003-2.26 2.486-.529.003-.99-2.485.528-.008-2.63 2.915-.62-.01-.998-3.916.832.009 7.87 3.916-.832zM308.687 86.777c1.722-.366 2.613-1.568 2.31-2.999-.16-.753-.733-1.171-1.392-1.256l-.005-.022c.787-.425 1.27-1.27 1.062-2.25-.217-1.022-1.015-1.55-2.328-1.27l-1.818.386.009 7.87 2.162-.46zm-1.17-.741l.001-2.643 1.087-.231c.796-.17 1.253.183 1.39.829.2.936-.282 1.578-1.38 1.811l-1.097.234zm-.003-3.564l.01-2.33.786-.167c.807-.172 1.245.038 1.37.63.18.84-.284 1.466-1.403 1.704l-.763.163zM316.778 85.057c1.905-.405 2.707-2.082 2.728-4.1a7.007 7.007 0 0 0-.137-1.489c-.304-1.43-1.233-2.572-2.868-2.224l-1.614.343.009 7.87 1.882-.4zm-.9-.798l-.002-5.881.785-.167c.904-.193 1.5.49 1.721 1.534.464 2.185-.33 4.052-1.686 4.34l-.818.174zM324.59 83.396l-.008-.988-2.905.618.003-2.261 2.486-.528.003-.99-2.486.528-.008-2.63 2.916-.62-.01-.999-3.916.833.008 7.87 3.917-.833zM328.237 82.621l1.96-8.289-1.075.23-1.073 4.793c-.155.696-.262 1.36-.355 1.875l-.021.004c-.049-.282-.251-1.127-.428-1.854l-1.05-4.197-1 .213 1.977 7.452 1.065-.227zM334.994 81.185l-.007-.988-2.905.617.003-2.26 2.485-.529.003-.99-2.485.528-.008-2.63 2.916-.62-.01-.998-3.917.832.009 7.87 3.916-.832zM339.793 80.165l-.007-.988-2.41.512-.001-6.882-1.023.217.009 7.87 3.432-.73zM342.915 79.614c2.249-.478 2.615-3.57 2.105-5.97-.29-1.366-1.094-2.342-2.525-2.038-2.249.478-2.621 3.594-2.114 5.982.293 1.378 1.092 2.332 2.534 2.026zm-.115-.965c-.829.176-1.244-.456-1.445-1.403-.405-1.904-.045-4.387 1.257-4.664.829-.176 1.244.455 1.445 1.402.41 1.926.034 4.39-1.257 4.665zM347.433 78.541l-.005-2.192.882-.187c2.087-.444 2.694-2.35 2.35-3.975-.252-1.183-1.127-1.964-2.483-1.676l-1.754.373-.002 7.872 1.012-.215zm-.004-3.193l.003-3.69.774-.164c.829-.176 1.317.215 1.477.968.263 1.238-.318 2.474-1.469 2.72l-.785.166zM355.685 76.787l-.007-.988-2.906.617.003-2.26 2.486-.529.003-.99-2.485.528-.008-2.63 2.916-.62-.01-.998-3.917.832.009 7.87 3.916-.832zM361.452 75.561l-1.268-2.474c1.042-.761 1.338-2.118 1.098-3.247-.24-1.13-1.15-1.87-2.496-1.584l-1.754.373.009 7.87 1.011-.215-.006-2.462.678-.144c.205-.043.396-.095.574-.156l1.132 2.256 1.022-.217zm-3.405-2.74l-.006-3.417.774-.165c.84-.178 1.327.213 1.478.923.28 1.313-.384 2.264-1.503 2.501l-.743.158z" fill="#fff" fill-rule="nonzero"/></g><g fill="none" stroke="#fff" stroke-width="1.5"><path d="M198.712 80.966l-5.545 1.179M189.008 83.029L-5.539 124.381M205.644 79.493l-2.773.589M205.644 84.533l-211.191 44.89M205.644 89.333h-.003M201.471 90.22l-2.772.589M202.86 89.925L-5.538 134.221"/></g><g fill="none" stroke="#fff" stroke-width="1.5"><path d="M345.092 59.967l5.546-1.179M354.797 57.904l181.142-38.503M338.161 61.44l2.772-.589M338.161 56.4l197.786-42.041M338.161 51.6l.003-.001M342.333 50.713l2.773-.589M349.265 49.24L535.948 9.559"/></g></svg>
